<?xml version="1.0" standalone="no"?>
<!DOCTYPE svg PUBLIC "-//W3C//DTD SVG 20010904//EN"
 "http://www.w3.org/TR/2001/REC-SVG-20010904/DTD/svg10.dtd">
<svg version="1.0" xmlns="http://www.w3.org/2000/svg"
 width="256.000000pt" height="256.000000pt" viewBox="0 0 256.000000 256.000000"
 preserveAspectRatio="xMidYMid meet">
<metadata>
Created by potrace 1.14, written by Peter Selinger 2001-2017
</metadata>
<g transform="translate(0.000000,256.000000) scale(0.100000,-0.100000)"
fill="#000000" stroke="none">
<path d="M454 2396 c-96 -100 -127 -163 -132 -275 -2 -47 1 -105 7 -128 13
-49 60 -113 114 -157 34 -27 47 -31 100 -31 34 0 78 3 97 8 l34 7 -44 -32
c-25 -18 -69 -57 -99 -86 l-53 -54 4 -58 c4 -52 10 -66 50 -117 86 -110 124
-205 159 -396 21 -114 22 -133 10 -189 -16 -79 -63 -199 -102 -259 -44 -70
-41 -118 14 -175 l42 -44 100 -10 c123 -13 265 -54 325 -94 50 -33 130 -98
202 -163 l47 -43 87 0 c84 0 92 2 208 54 67 30 166 73 221 96 75 31 112 53
148 88 47 46 48 48 44 97 -2 28 -19 91 -37 140 -42 113 -49 210 -26 356 17
106 71 348 86 384 21 50 61 133 80 165 14 25 20 53 20 96 0 59 -2 63 -39 97
-41 37 -34 35 -208 53 -104 10 -196 34 -263 67 -105 53 -200 110 -237 142
l-35 30 61 85 c72 101 80 146 35 199 -50 60 -77 71 -256 106 -95 19 -249 52
-343 74 -133 32 -190 41 -260 41 l-90 0 -71 -74z"/>
</g>
</svg>
